<svg width="60" height="67" viewBox="0 0 60 67" fill="none" xmlns="http://www.w3.org/2000/svg">
<path fill-rule="evenodd" clip-rule="evenodd" d="M0.460938 0L5.83748 60.3021L29.965 67L54.1583 60.2923L59.5406 0H0.460938ZM49.5755 56.4983L30.0504 61.8697V54.1945L29.9916 54.2083L14.816 50.0065L13.7798 38.4017H21.2045L21.7435 44.2923L29.9932 46.5078L30.0504 46.4992V34.5616L13.4155 34.5616L12.7678 27.1766V27.1766L30.0504 19.7797L30.0504 19.2688H12.1101L11.4548 11.8839H29.9754H30.0504L30.0504 5.02192H54.1501L49.5755 56.4983Z" fill="black" fill-opacity="0.68"/>
<path fill-rule="evenodd" clip-rule="evenodd" d="M31.2429 19.2687L30.0508 19.7796L30.0508 27.1765V34.5615H39.0829L38.262 44.2167L30.0508 46.5055V54.2001L45.1761 49.9982L47.1678 27.1765H30.0509L47.8392 19.2687L48.4745 11.8838H30.0508V19.1761V19.2687H31.2429Z" fill="black" fill-opacity="0.68"/>
</svg>
