<svg width="56" height="63" viewBox="0 0 56 63" fill="none" xmlns="http://www.w3.org/2000/svg">
<g clip-path="url(#clip0_161_746)">
<path fill-rule="evenodd" clip-rule="evenodd" d="M18.8649 0C13.8049 0 9.69824 4.704 9.69824 10.5C9.69824 16.296 13.8049 21 18.8649 21C13.8049 21 9.69824 25.704 9.69824 31.5C9.69824 37.296 13.8049 42 18.8649 42C13.8049 42 9.69824 46.704 9.69824 52.5C9.69824 58.296 13.8049 63 18.8649 63C23.9249 63 28.0316 58.296 28.0316 52.5L28.0316 31.5C28.0316 37.296 32.1382 42 37.1982 42C42.2582 42 46.3649 37.296 46.3649 31.5C46.3649 25.704 42.2582 21 37.1982 21C42.2582 21 46.3649 16.296 46.3649 10.5C46.3649 4.704 42.2582 0 37.1982 0H18.8649ZM37.1982 21H28.0316L28.0316 31.5C28.0316 25.704 32.1382 21 37.1982 21Z" fill="black" fill-opacity="0.68"/>
</g>
<defs>
<clipPath id="clip0_161_746">
<rect width="55" height="63" fill="white" transform="translate(0.459961)"/>
</clipPath>
</defs>
</svg>
