<svg width="65" height="64" viewBox="0 0 65 64" fill="none" xmlns="http://www.w3.org/2000/svg">
<path fill-rule="evenodd" clip-rule="evenodd" d="M63.2541 29.1489L35.3101 1.20714C33.702 -0.402379 31.0918 -0.402379 29.4816 1.20714L23.6791 7.00968L31.0399 14.3705C32.7505 13.7925 34.7118 14.1802 36.0756 15.5439C37.4456 16.9161 37.8305 18.8942 37.2385 20.6105L44.3324 27.7044C46.0487 27.1132 48.029 27.4959 49.3997 28.8687C51.3154 30.7837 51.3154 33.8876 49.3997 35.804C47.4833 37.7204 44.3795 37.7204 42.4624 35.804C41.0214 34.3616 40.6654 32.2451 41.395 30.4698L34.7793 23.8541L34.7786 41.2638C35.2455 41.4956 35.6865 41.8039 36.0756 42.1915C37.9913 44.1065 37.9913 47.2103 36.0756 49.1281C34.1592 51.0438 31.0539 51.0438 29.1403 49.1281C27.2246 47.2103 27.2246 44.1065 29.1403 42.1915C29.6136 41.7189 30.1614 41.3614 30.7456 41.1213V23.5493C30.1614 23.3106 29.6143 22.9553 29.1403 22.4791C27.6888 21.0297 27.3398 18.8999 28.0835 17.1176L20.828 9.86074L1.66762 29.0197C0.0574065 30.6306 0.0574065 33.2408 1.66762 34.8504L29.6115 62.7929C31.2203 64.4024 33.8298 64.4024 35.4408 62.7929L63.2541 34.9803C64.8636 33.3701 64.8636 30.7585 63.2541 29.1489Z" fill="black" fill-opacity="0.69"/>
</svg>
