<svg width="68" height="67" viewBox="0 0 68 67" fill="black" xmlns="http://www.w3.org/2000/svg">
<path fill-rule="evenodd" clip-rule="evenodd" d="M34.0403 1.57031C15.9746 1.57031 1.3252 16.217 1.3252 34.2854C1.3252 48.7398 10.6991 61.0028 23.6978 65.3287C25.3328 65.6315 25.933 64.619 25.933 63.7549C25.933 62.9748 25.9027 60.3977 25.8886 57.664C16.7872 59.6431 14.8667 53.8041 14.8667 53.8041C13.3786 50.0227 11.2343 49.0172 11.2343 49.0172C8.26608 46.9867 11.4581 47.0284 11.4581 47.0284C14.7432 47.2592 16.473 50.3997 16.473 50.3997C19.3909 55.4012 24.1263 53.9552 25.9932 53.1193C26.2868 51.0049 27.1346 49.5617 28.0702 48.7447C20.8038 47.9174 13.1651 45.1123 13.1651 32.5768C13.1651 29.005 14.4431 26.0866 16.5359 23.7955C16.1962 22.9715 15.0764 19.6441 16.8528 15.1379C16.8528 15.1379 19.6 14.2586 25.8518 18.4913C28.4614 17.7664 31.2601 17.4029 34.0403 17.3905C36.8206 17.4029 39.6214 17.7664 42.2359 18.4913C48.4801 14.2586 51.2235 15.1379 51.2235 15.1379C53.0042 19.6441 51.8839 22.9715 51.5442 23.7955C53.6419 26.0866 54.9112 29.005 54.9112 32.5768C54.9112 45.1421 47.2579 47.9088 39.973 48.7187C41.1464 49.7339 42.192 51.7249 42.192 54.7771C42.192 59.1544 42.1541 62.6774 42.1541 63.7549C42.1541 64.6255 42.743 65.6456 44.4013 65.3244C57.3929 60.9936 66.7549 48.7349 66.7549 34.2854C66.7549 16.217 52.1076 1.57031 34.0403 1.57031ZM13.5781 48.1737C13.506 48.3362 13.2503 48.385 13.0174 48.2734C12.7801 48.1666 12.6468 47.9451 12.7237 47.782C12.7942 47.6146 13.0504 47.568 13.2872 47.6802C13.525 47.7869 13.6604 48.0106 13.5781 48.1737ZM15.1873 49.6096C15.0313 49.7542 14.7263 49.687 14.5193 49.4584C14.3053 49.2304 14.2652 48.9253 14.4234 48.7785C14.5843 48.6339 14.8801 48.7016 15.0947 48.9297C15.3086 49.1605 15.3504 49.4633 15.1873 49.6096ZM16.2913 51.4467C16.0908 51.586 15.7631 51.4554 15.5605 51.1645C15.36 50.8736 15.36 50.5247 15.5648 50.3849C15.7679 50.2451 16.0908 50.3708 16.2962 50.6596C16.4961 50.9554 16.4961 51.3043 16.2913 51.4467ZM18.1584 53.5744C17.979 53.7722 17.5971 53.7191 17.3176 53.4493C17.0315 53.1855 16.9519 52.8111 17.1317 52.6134C17.3132 52.4151 17.6973 52.4709 17.979 52.7385C18.2629 53.0018 18.3496 53.3789 18.1584 53.5744ZM20.5714 54.2927C20.4923 54.549 20.1244 54.6654 19.7539 54.5566C19.3839 54.4444 19.1417 54.1443 19.2165 53.8853C19.2934 53.6275 19.6629 53.5061 20.0361 53.6226C20.4056 53.7342 20.6483 54.0321 20.5714 54.2927ZM23.3175 54.5974C23.3267 54.8672 23.0125 55.0909 22.6235 55.0958C22.2324 55.1045 21.916 54.8862 21.9116 54.6207C21.9116 54.3482 22.2188 54.1266 22.61 54.1201C22.9989 54.1125 23.3175 54.3292 23.3175 54.5974ZM26.0152 54.494C26.0618 54.7573 25.7915 55.0276 25.4052 55.0997C25.0255 55.169 24.6739 55.0065 24.6256 54.7454C24.5785 54.4756 24.8537 54.2052 25.2329 54.1354C25.6198 54.0682 25.9659 54.2264 26.0152 54.494Z" fill="black" fill-opacity="1"/>
</svg>
