<svg width="65" height="63" viewBox="0 0 65 63" fill="none" xmlns="http://www.w3.org/2000/svg">
<path fill-rule="evenodd" clip-rule="evenodd" d="M1.20996 8.73828C1.20996 4.32 4.79168 0.738281 9.20996 0.738281H55.71C60.1282 0.738281 63.71 4.32 63.71 8.73828V54.2617C63.71 58.68 60.1282 62.2617 55.71 62.2617H9.20996C4.79168 62.2617 1.20996 58.68 1.20996 54.2617V8.73828ZM17.6435 52.1517C17.6435 52.1517 17.6435 52.1517 17.6436 52.1517L17.6436 52.1517C19.0281 55.0422 21.7554 57.4374 26.4537 57.4374C31.6562 57.4374 35.2221 54.7117 35.2221 48.7234V31.9202C35.2221 30.2983 33.9073 28.9835 32.2854 28.9835C30.6635 28.9835 29.3486 30.2983 29.3486 31.9202V48.6417C29.3486 51.5323 28.1319 52.2755 26.2019 52.2755C23.4021 52.2755 20.4546 50.4771 18.0492 51.9101L17.6436 52.1517L17.6436 52.1517C17.6435 52.1516 17.6435 52.1516 17.6435 52.1517ZM44.9487 50.9214C43.7723 49.9268 42.1363 49.4098 40.7979 50.1726C39.4641 50.9328 38.9376 52.6472 39.9682 53.7851C41.9391 55.961 44.9682 57.4379 49.1105 57.4379C54.6902 57.4379 58.8436 54.5886 58.8436 49.3847C58.8436 44.5529 56.0326 42.4057 51.04 40.2993L49.5718 39.6799C47.0548 38.6061 45.9639 37.9038 45.9639 36.1692C45.9639 34.7653 47.0548 33.6916 48.7749 33.6916C49.5016 33.6916 50.118 33.8232 50.6653 34.1167C52.0203 34.8433 53.6382 35.4816 54.9379 34.6601C56.159 33.8882 56.5925 32.244 55.5889 31.2049C53.8356 29.3895 51.6069 28.6529 48.7748 28.6529C43.5304 28.6529 40.1741 31.9569 40.1741 36.2933C40.1741 41.0014 42.9852 43.2314 47.2228 45.0069L48.6907 45.6269C51.3758 46.7828 52.97 47.485 52.97 49.4673C52.97 51.1192 51.4181 52.317 48.9845 52.317C47.2509 52.317 45.9688 51.7838 44.9487 50.9214Z" fill="black" fill-opacity="0.68"/>
</svg>
